<svg xmlns="http://www.w3.org/2000/svg" viewBox="0 0 64 64">
  <defs>
    <linearGradient id="g" x1="0" x2="1" y1="0" y2="1">
      <stop offset="0" stop-color="#f4b942"/>
      <stop offset="1" stop-color="#ff6b6b"/>
    </linearGradient>
  </defs>
  <rect x="6" y="6" width="52" height="52" rx="16" fill="url(#g)"/>
  <path d="M24 18h16a4 4 0 0 1 4 4v6a4 4 0 0 1-2 3.5V42a6 6 0 0 1-6 6H28a6 6 0 0 1-6-6V31.5A4 4 0 0 1 20 28v-6a4 4 0 0 1 4-4Zm2 6v4h16v-4H26Zm2 8v10a2 2 0 0 0 2 2h8a2 2 0 0 0 2-2V32H28Zm18 2h6a6 6 0 0 0 0-12h-6v4h6a2 2 0 1 1 0 4h-6v4Z"
        fill="#121318" opacity="0.9"/>
</svg>