<svg xmlns="http://www.w3.org/2000/svg" viewBox="0 0 1600 900">
  <defs>
    <linearGradient id="g1" x1="0" x2="1" y1="0" y2="1">
      <stop offset="0" stop-color="#f4b942" stop-opacity="0.95"/>
      <stop offset="1" stop-color="#ff6b6b" stop-opacity="0.85"/>
    </linearGradient>
    <radialGradient id="g2" cx="25%" cy="20%" r="70%">
      <stop offset="0" stop-color="#ffffff" stop-opacity="0.22"/>
      <stop offset="1" stop-color="#ffffff" stop-opacity="0"/>
    </radialGradient>
    <filter id="blur" x="-10%" y="-10%" width="120%" height="120%">
      <feGaussianBlur stdDeviation="18"/>
    </filter>
  </defs>

  <rect width="1600" height="900" fill="#0f1115"/>
  <rect width="1600" height="900" fill="url(#g2)"/>

  <g filter="url(#blur)">
    <circle cx="260" cy="140" r="220" fill="url(#g1)" opacity="0.35"/>
    <circle cx="1420" cy="220" r="260" fill="url(#g1)" opacity="0.25"/>
    <circle cx="1180" cy="760" r="300" fill="url(#g1)" opacity="0.18"/>
  </g>

  <g opacity="0.25">
    <path d="M-40 740 C 280 560, 520 620, 820 520 C 1100 430, 1300 410, 1660 250"
          fill="none" stroke="#ffffff" stroke-width="2"/>
    <path d="M-40 780 C 280 600, 540 650, 840 550 C 1120 460, 1320 450, 1660 290"
          fill="none" stroke="#ffffff" stroke-width="2"/>
    <path d="M-40 820 C 280 640, 560 690, 860 590 C 1140 500, 1340 490, 1660 330"
          fill="none" stroke="#ffffff" stroke-width="2"/>
  </g>

  <g transform="translate(1180 290) scale(1.2)">
    <path d="M108 38c0-10-8-18-18-18H44c-10 0-18 8-18 18v18c0 6 3 11 8 14v78c0 10 8 18 18 18h30c10 0 18-8 18-18V70c5-3 8-8 8-14V38z"
          fill="#ffffff" opacity="0.12"/>
    <path d="M94 76h22c14 0 26 12 26 26s-12 26-26 26H94v-16h22c6 0 10-4 10-10s-4-10-10-10H94V76z"
          fill="#ffffff" opacity="0.10"/>
    <rect x="40" y="34" width="54" height="18" rx="9" fill="#ffffff" opacity="0.10"/>
    <rect x="40" y="52" width="54" height="100" rx="12" fill="#ffffff" opacity="0.08"/>
  </g>

  <g>
    <text x="110" y="420" font-family="system-ui, -apple-system, Segoe UI, Roboto, Helvetica, Arial" font-size="86" font-weight="800" fill="#ffffff" opacity="0.93">
      Bauer Pub
    </text>
    <text x="112" y="476" font-family="system-ui, -apple-system, Segoe UI, Roboto, Helvetica, Arial" font-size="28" font-weight="600" fill="#ffffff" opacity="0.70">
      Birre • Cucina • Musica dal vivo
    </text>
  </g>
</svg>